<?xml version="1.0" encoding="utf-8"?>
<!-- Generator: Adobe Illustrator 27.9.0, SVG Export Plug-In . SVG Version: 6.00 Build 0)  -->
<svg version="1.1" xmlns="http://www.w3.org/2000/svg" xmlns:xlink="http://www.w3.org/1999/xlink" x="0px" y="0px"
	 viewBox="0 0 500 500" style="enable-background:new 0 0 500 500;" xml:space="preserve">
<style type="text/css">
	.st0{display:none;}
	.st1{display:inline;}
	.st2{fill:#D91F26;}
	.st3{fill:#FFFFFF;}
	.st4{fill:#F7F7F8;}
	.st5{fill:#3EAA00;}
	.st6{fill:#FF55F3;}
</style>
<g id="Layer_1" class="st0">
	<g class="st1">
		<g>
			<circle class="st2" cx="250" cy="250" r="217"/>
			<g>
				<g>
					<g>
						<g id="XMLID_00000124866536915353367960000003460505693487793293_">
							<g>
								<path class="st3" d="M448.8,192.3c5.5,18.7,8.5,38.4,8.5,58.9c0,21.8-3.4,42.8-9.6,62.6L408.2,301
									c4.9-15.7,7.6-32.4,7.6-49.8c0-16.6-2.4-32.7-7-47.8L448.8,192.3z"/>
								<path class="st3" d="M368.4,81L344,114.6c-25.8-17.8-56.8-28.4-90.3-29.1l1.8-41.5C297.4,45.1,336.2,58.6,368.4,81z"/>
								<path class="st3" d="M340.6,390.2l22.9,34.6c-32.6,21.4-71.6,33.8-113.5,33.8c-1.1,0-2.2,0-3.3,0V417c1.1,0,2.2,0,3.3,0
									C283.5,417.1,314.6,407.2,340.6,390.2z"/>
								<path class="st3" d="M127.3,84.1l24.4,33.6c-25.3,18.7-45.2,44.4-56.6,74.3l-38.9-14.5C70.5,139.9,95.4,107.6,127.3,84.1z"
									/>
								<path class="st3" d="M143.5,378.4l-25.8,32.5c-30.8-25.5-54-59.8-66-99l39.5-12.8C100.6,330.5,119,357.9,143.5,378.4z"/>
							</g>
						</g>
					</g>
				</g>
			</g>
		</g>
		<circle class="st4" cx="248.7" cy="248.5" r="111.2"/>
	</g>
</g>
<g id="Layer_2">
	<polygon class="st5" points="403,150.5 405.3,150.5 468.2,56.5 403,56.5 100,56.5 35.1,56.5 34.9,56.9 100,147.3 100,308 34.9,376 
		152.7,376 251.5,460.5 350.3,376 467.9,376 468.2,375.7 403,308 	"/>
	<ellipse class="st6" cx="329.6" cy="359" rx="21.5" ry="13.2"/>
	<circle cx="305.5" cy="332.5" r="13.2"/>
	<ellipse class="st6" cx="170.4" cy="359" rx="21.5" ry="13.2"/>
	<circle cx="194.5" cy="332.5" r="13.2"/>
</g>
</svg>
