<?xml version="1.0" standalone="no"?>
<!DOCTYPE svg PUBLIC "-//W3C//DTD SVG 20010904//EN"
 "http://www.w3.org/TR/2001/REC-SVG-20010904/DTD/svg10.dtd">
<svg version="1.0" xmlns="http://www.w3.org/2000/svg"
 width="834.000000pt" height="834.000000pt" viewBox="0 0 834.000000 834.000000"
 preserveAspectRatio="xMidYMid meet">
<metadata>
Created by potrace 1.14, written by Peter Selinger 2001-2017
</metadata>
<g transform="translate(0.000000,834.000000) scale(0.100000,-0.100000)"
fill="#000000" stroke="none">
<path d="M4443 6728 c-1 -750 -2 -1372 -2 -1384 -1 -20 -6 -20 -143 -20 l-143
1 0 1353 0 1353 -45 -6 c-73 -10 -138 -32 -217 -75 -381 -205 -689 -748 -857
-1510 -24 -112 -40 -193 -51 -275 -4 -22 -8 -47 -10 -55 -2 -8 -7 -40 -10 -70
-3 -30 -8 -66 -10 -80 -2 -14 -7 -59 -10 -100 -3 -41 -8 -86 -10 -100 -24
-159 -24 -782 1 -1008 6 -49 4 -55 -28 -90 -106 -117 -228 -302 -315 -477 -53
-105 -129 -290 -138 -335 -2 -8 -8 -27 -14 -43 -6 -15 -13 -38 -15 -50 -3 -12
-11 -47 -19 -77 -29 -106 -51 -244 -66 -405 -8 -88 -6 -430 2 -470 3 -11 8
-49 12 -85 13 -109 19 -144 42 -235 8 -33 17 -71 20 -85 8 -44 80 -253 118
-340 61 -142 196 -382 255 -453 6 -7 33 -41 61 -77 285 -364 708 -627 1131
-704 187 -33 426 -38 568 -11 14 3 41 7 60 10 119 19 321 85 450 148 108 52
286 162 320 197 3 3 23 18 45 35 67 50 214 195 294 292 287 346 448 722 526
1233 23 152 23 581 0 670 -2 8 -7 35 -10 60 -4 25 -10 63 -15 85 -5 22 -11 54
-14 70 -11 58 -14 73 -36 146 -51 174 -101 302 -180 454 -85 165 -165 286
-291 435 -50 60 -48 46 -35 200 24 290 24 678 1 949 -13 144 -42 391 -50 421
-2 8 -6 31 -9 50 -17 106 -35 193 -68 325 -16 66 -31 127 -33 135 -32 143
-137 424 -225 605 -172 350 -385 591 -616 696 -60 27 -169 59 -205 59 -14 0
-16 -126 -16 -1362z"/>
</g>
</svg>
