<?xml version="1.0" encoding="utf-8"?>
<!-- Generator: Adobe Illustrator 27.9.0, SVG Export Plug-In . SVG Version: 6.00 Build 0)  -->
<svg version="1.1" id="Layer_1" xmlns="http://www.w3.org/2000/svg" xmlns:xlink="http://www.w3.org/1999/xlink" x="0px" y="0px"
	 viewBox="0 0 500 500" style="enable-background:new 0 0 500 500;" xml:space="preserve">
<style type="text/css">
	.st0{fill:#10763C;}
	.st1{fill:#FFFFFF;}
	.st2{fill:#F7F7F8;}
</style>
<g>
	<g>
		<circle class="st0" cx="249.5" cy="249" r="216.99"/>
		<g>
			<g>
				<g>
					<g id="XMLID_00000043444157304944281750000016541093751054665347_">
						<g>
							<path class="st1" d="M415.33,250.25c0-16.62-2.44-32.67-6.99-47.8l39.97-11.13c5.51,18.67,8.49,38.45,8.49,58.93
								c0,21.81-3.36,42.84-9.59,62.58l-39.46-12.81C412.67,284.32,415.33,267.59,415.33,250.25z"/>
							<path class="st1" d="M367.9,80.04l-24.39,33.56c-25.75-17.75-56.78-28.39-90.29-29.11L255,43.02
								C296.93,44.12,335.74,57.63,367.9,80.04z"/>
							<path class="st1" d="M363.02,423.77c-32.59,21.38-71.6,33.78-113.52,33.78c-1.11,0-2.21,0-3.3-0.04v-41.47
								c1.09,0.02,2.19,0.04,3.3,0.04c33.45,0,64.57-9.88,90.6-26.87L363.02,423.77z"/>
							<path class="st1" d="M94.6,190.95l-38.88-14.51c14.29-37.57,39.19-69.88,71.05-93.31l24.39,33.56
								C125.82,135.34,106,161.06,94.6,190.95z"/>
							<path class="st1" d="M117.21,409.91c-30.79-25.52-54.05-59.79-66-99.03l39.46-12.83c9.41,31.4,27.88,58.87,52.35,79.37
								L117.21,409.91z"/>
						</g>
						<g>
						</g>
					</g>
				</g>
			</g>
		</g>
		<circle class="st2" cx="246.2" cy="247.52" r="111.21"/>
	</g>
	<circle class="st2" cx="249.5" cy="247.52" r="111.21"/>
</g>
</svg>
